<svg xmlns="http://www.w3.org/2000/svg" xmlns:xlink="http://www.w3.org/1999/xlink" version="1.1" width="256" height="256" viewBox="0 0 256 256" xml:space="preserve">

<defs>
</defs>
<g style="stroke: none; stroke-width: 0; stroke-dasharray: none; stroke-linecap: butt; stroke-linejoin: miter; stroke-miterlimit: 10; fill: none; fill-rule: nonzero; opacity: 1;" transform="translate(1.4065934065934016 1.4065934065934016) scale(2.81 2.81)" >
	<path d="M 76.251 90 H 13.748 c -2.981 0 -5.406 -2.425 -5.406 -5.406 v -6.081 c 0 -13.226 8.852 -25.205 21.526 -29.13 c 1.83 -0.566 3.059 -2.226 3.059 -4.127 c 0 -1.16 -0.463 -2.256 -1.305 -3.085 c -3.659 -3.609 -5.674 -8.417 -5.674 -13.54 v -9.578 c 0 -5.217 2.068 -10.086 5.823 -13.71 c 3.753 -3.623 8.702 -5.524 13.921 -5.329 c 10.122 0.36 18.359 9.084 18.359 19.448 v 9.169 c 0 5.123 -2.015 9.931 -5.674 13.539 c -0.841 0.83 -1.305 1.926 -1.305 3.086 c 0 1.902 1.229 3.561 3.059 4.127 c 12.675 3.925 21.526 15.903 21.526 29.13 v 6.081 C 81.658 87.575 79.233 90 76.251 90 z M 44.995 4.001 c -3.924 0 -7.614 1.486 -10.446 4.22 c -2.967 2.863 -4.601 6.71 -4.601 10.832 v 9.578 c 0 4.044 1.592 7.841 4.482 10.692 c 1.609 1.586 2.496 3.694 2.496 5.934 c 0 3.665 -2.361 6.86 -5.875 7.948 c -11.016 3.412 -18.709 13.819 -18.709 25.309 v 6.081 c 0 0.775 0.631 1.406 1.406 1.406 h 62.503 c 0.775 0 1.406 -0.631 1.406 -1.406 v -6.081 c 0 -11.49 -7.693 -21.897 -18.71 -25.309 c -3.514 -1.088 -5.875 -4.282 -5.875 -7.948 c 0 -2.207 0.91 -4.369 2.496 -5.934 c 2.891 -2.851 4.482 -6.648 4.482 -10.692 v -9.169 c 0 -8.235 -6.505 -15.166 -14.501 -15.451 C 45.365 4.004 45.179 4.001 44.995 4.001 z" style="stroke: none; stroke-width: 1; stroke-dasharray: none; stroke-linecap: butt; stroke-linejoin: miter; stroke-miterlimit: 10; fill: rgb(255,255,255); fill-rule: nonzero; opacity: 1;" transform=" matrix(1 0 0 1 0 0) " stroke-linecap="round" />
</g>
</svg>